<?xml version="1.0" encoding="utf-8"?>
<!-- Generator: Adobe Illustrator 25.2.0, SVG Export Plug-In . SVG Version: 6.00 Build 0)  -->
<svg version="1.1" id="Calque_1" xmlns="http://www.w3.org/2000/svg" xmlns:xlink="http://www.w3.org/1999/xlink" x="0px" y="0px"
	 viewBox="0 0 1920 1080" style="enable-background:new 0 0 1920 1080;" xml:space="preserve">
<style type="text/css">
	.st0{fill:none;}
	.st1{fill:#4E0FEA;}
	.st2{fill:#FFFFFF;}
</style>
<rect x="718" y="441" class="st0" width="388" height="116"/>
<path class="st1" d="M842.79,551h-98.58c-10.06,0-18.21-8.15-18.21-18.21v-68.58c0-10.06,8.15-18.21,18.21-18.21h98.58
	c10.06,0,18.21,8.15,18.21,18.21v68.58C861,542.85,852.85,551,842.79,551z"/>
<path class="st2" d="M903.61,525.36c-15.48-0.09-25.77-8.18-28.19-22.19c-2.66-15.4,6.51-28.6,22.01-30.95
	c11.52-1.75,22.34,0.15,29.72,10.19c6.66,9.06,7.03,19.28,2.03,29.12C924.01,521.72,914.64,525.38,903.61,525.36z M890.69,498.32
	c-0.17,8.02,4.85,13.41,12.66,13.57c7.77,0.16,13.23-5.11,13.41-12.93c0.18-8.03-5.14-13.7-12.96-13.82
	C896.15,485.02,890.87,490.33,890.69,498.32z"/>
<path class="st2" d="M995.42,473.62c14.83,0,29.53,0,44.61,0c0,3.88,0,7.73,0,11.99c-9.41,0-18.83,0-28.61,0c0,2.65,0,4.92,0,7.59
	c9.04,0,18.08,0,27.5,0c0,3.7,0,7,0,10.7c-9.3,0-18.34,0-27.62,0c0,2.42,0,4.45,0,7.04c7.35,0,14.55-0.01,21.75,0
	c9.03,0.01,7.14-0.55,7.29,7.33c0.03,1.57,0,3.14,0,5.09c-15.04,0-29.82,0-44.92,0C995.42,506.88,995.42,490.38,995.42,473.62z"/>
<path class="st2" d="M1099.66,523.7c-5.9,0-10.74,0.12-15.56-0.1c-1.01-0.05-2.22-1.19-2.9-2.14c-3.03-4.24-5.89-8.58-9.15-13.38
	c-3.23,4.75-5.95,9.05-9.02,13.09c-0.93,1.23-2.8,2.32-4.31,2.43c-4.41,0.32-8.87,0.11-14.25,0.11c6.26-8.89,12.04-17.1,17.93-25.46
	c-5.7-8.06-11.37-16.08-17.5-24.75c5.82,0,11.02-0.19,16.18,0.15c1.11,0.08,2.24,2,3.12,3.24c2.55,3.62,4.97,7.32,7.84,11.58
	c3.09-4.54,5.63-8.64,8.59-12.41c1.03-1.31,3.05-2.42,4.71-2.56c4.39-0.35,8.83-0.12,13.97-0.12c-5.53,7.81-10.5,15.02-15.7,22.06
	c-1.5,2.04-1.57,3.39-0.04,5.47C1088.84,508.11,1093.87,515.47,1099.66,523.7z"/>
<path class="st2" d="M990.46,473.37c-2.47,6.46-4.66,12.2-6.84,17.94c-3.73,9.82-7.54,19.61-11.13,29.48
	c-0.81,2.23-1.88,3.07-4.25,3c-5.26-0.16-10.54,0.06-15.8-0.14c-1.14-0.04-2.92-0.9-3.27-1.81c-6.08-15.67-11.98-31.4-17.9-47.13
	c-0.08-0.21,0.05-0.51,0.15-1.28c4.62,0,9.32-0.16,14,0.14c0.91,0.06,2.07,1.74,2.51,2.9c3.95,10.44,7.77,20.93,11.63,31.4
	c0.16,0.44,0.39,0.87,0.99,2.22c0.9-2.12,1.54-3.47,2.04-4.86c3.46-9.5,6.97-18.98,10.28-28.53c0.87-2.51,2.09-3.55,4.82-3.39
	C981.69,473.54,985.74,473.37,990.46,473.37z"/>
<g>
	<path class="st2" d="M773.17,523.59c7.46-12.45,14.37-24.06,21.36-35.64c8.85-14.66,8.88-14.65,25.86-14.64
		c10.79,0.01,21.58,0,32.86,0c0.1,1.45,0.27,2.7,0.27,3.95c0.01,11.72,0.03,23.44-0.03,35.16c-0.04,7.23-4.03,11.12-11.31,11.15
		c-6.17,0.03-12.34,0.01-18.84,0.01c0-5.1,0-9.89,0-15.47c3.28,0,6.63-0.11,9.97,0.03c3.4,0.14,4.76-1.33,4.66-4.71
		c-0.15-4.71-0.04-9.43-0.04-14.61c-7.37,0-14.44-0.15-21.49,0.14c-1.28,0.05-2.84,1.71-3.65,3.01
		c-5.81,9.39-11.56,18.82-17.08,28.38c-1.47,2.54-3.11,3.41-5.95,3.29C784.53,523.44,779.29,523.59,773.17,523.59z"/>
	<path class="st2" d="M733.48,523.61c2.72-4.61,5.01-8.53,7.34-12.42c6.09-10.14,12.22-20.25,18.28-30.41
		c2.94-4.93,7.1-7.53,12.94-7.46c7.84,0.09,15.67,0.02,24.23,0.02c-3.12,5.15-5.68,9.7-8.62,13.98c-0.66,0.96-2.76,1.6-4.03,1.38
		c-6.73-1.15-10.47,1.84-13.51,7.69c-4.35,8.38-9.64,16.27-14.42,24.45c-1.19,2.03-2.52,2.93-4.98,2.83
		C745.26,523.46,739.78,523.61,733.48,523.61z"/>
</g>
<path class="st0" d="M890.69,498.32c0.17-7.99,5.45-13.3,13.1-13.18c7.82,0.12,13.14,5.8,12.96,13.82
	c-0.18,7.82-5.64,13.09-13.41,12.93C895.54,511.73,890.52,506.34,890.69,498.32z"/>
</svg>
